# xmcd
#
# Track frame offsets: 
#        150
#        26140
#        46470
#        60630
#        74977
#        102715
#        109220
#        156435
#        176570
#
# Disc length: 2711 seconds
#
# Revision: 3
# Processed by: cddbd v1.5.2PL0 Copyright (c) Steve Scherf et al.
# Submitted via: ExactAudioCopy v0.99pb5
#
DISCID=8c0a9509
DTITLE=Santana - Blues for Salavador
DYEAR=1987
DGENRE=Rock
TTITLE0=Bailando Aquatic Park
TTITLE1=Bella
TTITLE2=I'm Gone
TTITLE3='Trane
TTITLE4=Deeper, Dig Deeper
TTITLE5=Mingus
TTITLE6=Now That You Know
TTITLE7=Hannibal
TTITLE8=Blues for Salvador
EXTD=YEAR: 1987
EXTT0=
EXTT1=
EXTT2=
EXTT3=
EXTT4=
EXTT5=
EXTT6=
EXTT7=
EXTT8=
PLAYORDER=
